#!OML:ASF I:\Actors\actors\Patient Classification 2\Patient 1\Session 1\actor1.ASF
:FULLY-SPECIFIED
:DEGREES
149
root -0.706342 18.6968 5.76544 2.20661 -3.03434 -1.48244
lowerback 0.55953 0.578607 -0.604886
upperback -2.97617 0.761924 0.14444
thorax -3.37992 0.398639 0.460603
lowerneck -9.8039 -2.22504 -3.85595
upperneck 26.942 -3.89658 5.51616
head 10.3885 -1.56991 2.16534
rclavicle 1.18774e-014 2.98177e-015
rhumerus -50.2333 -5.57038 -82.6019
rradius 41.9779
rwrist 19.4845
rhand -11.5226 -25.3363
rfingers 7.12502
rthumb 14.517 -54.8084
lclavicle 1.18774e-014 2.98177e-015
lhumerus -45.598 8.5152 84.1661
lradius 37.516
lwrist -8.68215
lhand -8.60998 -30.544
lfingers 7.12502
lthumb 17.3218 -1.29594
rfemur 0 0 0
rtibia 0
rfoot 0 0
rtoes 0
lfemur -4.38704 -10.3604 -13.2976
ltibia 20.4553
lfoot -25.0668 17.5095
ltoes -54.6144
150
root -0.706431 18.6973 5.76578 2.20955 -3.04189 -1.4695
lowerback 0.563346 0.582597 -0.601394
upperback -2.95475 0.76692 0.129479
thorax -3.35973 0.400699 0.443195
lowerneck -9.73234 -2.21164 -3.77656
upperneck 26.7724 -3.87167 5.46053
head 10.3078 -1.5592 2.13275
rclavicle -5.36719e-015 -6.55989e-015
rhumerus -50.288 -5.36757 -82.7862
rradius 42.2297
rwrist 19.2393
rhand -11.3933 -25.555
rfingers 7.12502
rthumb 14.6416 -55.0181
lclavicle -5.36719e-015 -6.55989e-015
lhumerus -45.3928 8.60538 84.1356
lradius 37.0554
lwrist -8.80108
lhand -8.61598 -30.6902
lfingers 7.12502
lthumb 17.3161 -1.44156
rfemur 0 0 0
rtibia 0
rfoot 0 0
rtoes 0
lfemur -4.38528 -10.3028 -13.3134
ltibia 20.462
lfoot -25.0249 17.5018
ltoes -54.6217
151
root -0.706023 18.6975 5.7658 2.20542 -3.0517 -1.44562
lowerback 0.567719 0.587876 -0.580485
upperback -2.93046 0.77342 0.0926847
thorax -3.33634 0.402696 0.393564
lowerneck -9.62556 -2.19907 -3.74314
upperneck 26.5548 -3.85763 5.48145
head 10.2061 -1.55057 2.13384
rclavicle 2.74571e-015 -4.37326e-015
rhumerus -50.3144 -5.14002 -83.0144
rradius 42.4418
rwrist 18.9657
rhand -11.1896 -25.6958
rfingers 7.12502
rthumb 14.8378 -55.1445
lclavicle 2.74571e-015 -4.37326e-015
lhumerus -45.4216 8.1962 84.317
lradius 37.3668
lwrist -8.41041
lhand -8.42143 -30.4738
lfingers 7.12502
lthumb 17.5033 -1.2418
rfemur 0 0 0
rtibia 0
rfoot 0 0
rtoes 0
lfemur -4.37399 -10.3281 -13.3469
ltibia 20.4561
lfoot -25.0877 17.4897
ltoes -54.5359
152
root -0.705725 18.6958 5.76779 2.18028 -3.09408 -1.44676
lowerback 0.54721 0.60027 -0.547607
upperback -2.87953 0.790302 0.0698068
thorax -3.27149 0.409625 0.351646
lowerneck -9.53939 -2.18745 -3.80517
upperneck 26.3378 -3.8604 5.6348
head 10.1145 -1.5442 2.19638
rclavicle 1.2598e-014 7.55382e-015
rhumerus -50.3149 -4.808 -83.3048
rradius 42.68
rwrist 18.5847
rhand -11.0149 -25.7951
rfingers 7.12502
rthumb 15.0061 -55.2314
lclavicle 1.2598e-014 7.55382e-015
lhumerus -45.3753 7.28261 84.7673
lradius 37.7395
lwrist -7.45649
lhand -8.29167 -30.0388
lfingers 7.12502
lthumb 17.6282 -0.817946
rfemur 0 0 0
rtibia 0
rfoot 0 0
rtoes 0
lfemur -4.32538 -10.3637 -13.3573
ltibia 20.43
lfoot -25.1651 17.5215
ltoes -54.5144
153
root -0.705286 18.6939 5.77091 2.14134 -3.21627 -1.43452
lowerback 0.528522 0.642135 -0.538465
upperback -2.81437 0.846131 0.0514491
thorax -3.19377 0.436657 0.326479
lowerneck -9.44567 -2.16189 -3.83483
upperneck 26.0815 -3.83396 5.73798
head 10.0042 -1.52718 2.23818
rclavicle -1.02498e-014 2.38542e-015
rhumerus -50.3855 -4.40503 -83.6277
rradius 43.0845
rwrist 18.053
rhand -11.0665 -26.0493
rfingers 7.12502
rthumb 14.9564 -55.4892
lclavicle -1.02498e-014 2.38542e-015
lhumerus -45.2578 5.86824 85.4818
lradius 38.176
lwrist -5.89267
lhand -7.97055 -29.3017
lfingers 7.12502
lthumb 17.9372 -0.108827
rfemur 0 0 0
rtibia 0
rfoot 0 0
rtoes 0
lfemur -4.23194 -10.3812 -13.3982
ltibia 20.4029
lfoot -25.2659 17.6104
ltoes -54.5037
154
root -0.710463 18.6977 5.75951 2.29891 -3.05715 -1.38738
lowerback 0.561262 0.599186 -0.621967
upperback -2.85981 0.785858 0.024779
thorax -3.25941 0.408662 0.347161
lowerneck -9.27974 -2.14575 -3.75635
upperneck 25.739 -3.80628 5.71522
head 9.84487 -1.51495 2.21603
rclavicle -6.38596e-015 4.77083e-015
rhumerus -50.5497 -4.0016 -83.9576
rradius 43.642
rwrist 17.3013
rhand -10.9798 -26.2073
rfingers 7.12502
rthumb 15.0399 -55.641
lclavicle -6.38596e-015 4.77083e-015
lhumerus -45.6459 4.57003 86.1037
lradius 40.0472
lwrist -4.87658
lhand -6.75289 -27.0434
lfingers 7.12502
lthumb 19.1085 2.03794
rfemur 0 0 0
rtibia 0
rfoot 0 0
rtoes 0
lfemur -4.4897 -10.1261 -13.331
ltibia 20.3898
lfoot -25.0193 17.2848
ltoes -54.5246
155
root -0.727401 18.7108 5.72179 2.88062 -2.3198 -1.33803
lowerback 0.589272 0.362397 -0.86297
upperback -3.098 0.462843 0.0236175
thorax -3.52017 0.255754 0.490815
lowerneck -9.18495 -2.14679 -3.7211
upperneck 25.447 -3.81583 5.77168
head 9.72283 -1.51409 2.22534
rclavicle 6.58474e-016 3.37934e-015
rhumerus -50.7399 -3.49875 -84.3408
rradius 44.3381
rwrist 16.1628
rhand -10.3599 -26.4876
rfingers 7.12502
rthumb 15.637 -55.8756
lclavicle 6.58474e-016 3.37934e-015
lhumerus -46.8201 3.71772 86.3836
lradius 43.4245
lwrist -3.60247
lhand -5.09319 -25.7686
lfingers 7.12502
lthumb 20.7039 3.147
rfemur 0 0 0
rtibia 0
rfoot 0 0
rtoes 0
lfemur -5.48531 -9.33011 -12.9833
ltibia 20.3736
lfoot -24.0165 16.213
ltoes -54.8181
156
root -0.695192 18.6869 5.79804 1.9824 -3.66786 -1.47598
lowerback 0.258552 0.820022 -0.203623
upperback -2.50146 1.08852 -0.0792427
thorax -2.71219 0.546816 0.00424471
lowerneck -9.23807 -2.12686 -3.72765
upperneck 25.2256 -3.79665 5.86502
head 9.65486 -1.49681 2.25793
rclavicle -9.13167e-015 4.77083e-015
rhumerus -51.0357 -2.69193 -84.8628
rradius 45.3209
rwrist 14.6138
rhand -9.3434 -27.2098
rfingers 7.12502
rthumb 16.6159 -56.5186
lclavicle -9.13167e-015 4.77083e-015
lhumerus -47.2558 1.97639 87.1697
lradius 45.3973
lwrist -1.53964
lhand -4.03668 -22.7767
lfingers 7.12502
lthumb 21.7187 6.02496
rfemur 0 0 0
rtibia 0
rfoot 0 0
rtoes 0
lfemur -3.78684 -11.0923 -13.613
ltibia 20.4084
lfoot -26.1506 18.2929
ltoes -53.9737
